<?xml version="1.0" encoding="UTF-8"?>
<svg id="Layer_1" xmlns="http://www.w3.org/2000/svg" version="1.1" xmlns:xlink="http://www.w3.org/1999/xlink" viewBox="0 0 772.93 672.45">
  <!-- Generator: Adobe Illustrator 30.0.0, SVG Export Plug-In . SVG Version: 2.1.1 Build 123)  -->
  <defs>
    <style>
      .st0 {
        fill: none;
      }

      .st1 {
        fill: url(#linear-gradient);
        fill-rule: evenodd;
      }
    </style>
    <linearGradient id="linear-gradient" x1="62.58" y1="342.01" x2="904.47" y2="342.01" gradientTransform="translate(919.32 165.98) rotate(130.81)" gradientUnits="userSpaceOnUse">
      <stop offset="0" stop-color="#05f"/>
      <stop offset=".5" stop-color="#0af"/>
      <stop offset="1" stop-color="#97e5ff"/>
    </linearGradient>
  </defs>
  <rect class="st0" width="841.89" height="595.28"/>
  <path class="st1" d="M63.93,622.33c3.47-5.36,7.14-10.63,10.38-16.11,11.11-18.83,13.3-37.84,7.08-56.8-3.52-10.74-7.53-21.26-11.05-32-3.14-9.59-4.94-19.57-3.94-30.24,1.78-19,11.63-33.9,26.52-46.14,21.79-17.92,45.74-22.4,70.72-19.39,24.99,3.02,47.21,12.5,67.76,25.08,15.38,9.42,29.81,20.26,44.52,30.69,22.59,16.01,45.52,31.49,70.61,43.75,2.92,1.43,5.89,2.77,8.84,4.15.25-.28.49-.57.74-.85-3.26-4.75-6.39-9.61-9.81-14.24-13.31-18.01-27.89-34.88-43.49-50.8-10.52-10.73-21.35-21.14-31.66-32.07-22.13-23.46-43.33-47.76-60.46-75.55-9.04-14.66-16.87-30.04-19.23-48.11-2.49-19.1,2.06-36.84,17.04-51.87,13.01-13.06,28.56-17.68,45.22-17.4,15.62.26,29.92,4.64,43.73,10.31,22.71,9.33,43.87,21.3,63.95,34.93,16.63,11.28,32.81,23.19,49.14,34.9,24.42,17.52,49.28,34.39,76.58,47.6,2.22,1.07,4.51,2.02,6.77,3.03.21-.22.42-.44.63-.66-2.82-4.17-5.53-8.44-8.49-12.5-16.03-22.01-33.94-42.28-53.26-61.24-15.01-14.73-30.4-29.07-45.29-43.91-13.79-13.74-27.46-27.63-40.6-42.01-15.02-16.44-29.78-33.15-43.95-50.37-14.85-18.04-28.74-36.93-38.21-58.97-4.17-9.71-6.9-19.95-6.35-31.18,1.45-29.84,25.81-51.19,54.39-47.7,13.57,1.66,25.75,6.73,37.61,12.44,24.84,11.96,48.18,26.32,71.32,40.99,19.18,12.16,38.38,24.29,57.51,36.54,27.31,17.5,58.16,18.2,90.96,8.8,29.64-8.5,55.91-24.91,80.41-44.85,9.64-7.84,18.68-16.47,27.97-24.78.94-.84,1.67-1.93,2.5-2.9,16.32,14.09,32.63,28.18,48.95,42.27-3.28,3.16-6.56,6.3-9.83,9.47-22.2,21.53-46.02,40.78-72.13,56.77-33.05,20.25-67.74,34.02-104.75,37.77-34.35,3.48-66.7-1.12-95.24-17.3-20.33-11.52-39.5-24.88-59.21-37.4-5.29-3.36-10.64-6.66-15.96-9.99-.09,1.3.34,2.05.9,2.67,7.84,8.7,15.53,17.54,23.59,26.02,13.83,14.58,27.73,29.09,41.89,43.34,11.25,11.31,22.94,22.16,34.36,33.3.75.73.82,2.16,1.08,2.91.84.21,2.07.2,2.87.77,1.59,1.15,3.04,2.51,4.37,3.96,12.96,14.12,26.1,28.07,38.77,42.46,14.14,16.05,26.9,33.26,37.52,52.13,7.5,13.32,13.7,27.32,15.11,43.45,1.41,15.99-2.32,31.04-13.5,44.52-10.92,13.16-24.73,19.72-40.44,21.37-16,1.68-30.73-1.89-44.92-7.08-32.62-11.95-61.47-30.17-89.57-49.52-13.66-9.4-26.81-19.51-40.21-29.27-20.21-14.71-41.28-28.14-63.63-39.65-3.36-1.73-6.87-3.22-10.31-4.82-.2.25-.41.51-.61.76.56.94,1.11,1.89,1.7,2.81,12.26,19.01,26.66,36.22,41.95,52.59,14.5,15.53,29.78,30.3,44.27,45.83,11.65,12.49,22.95,25.35,33.82,38.56,12.87,15.65,24.53,32.28,33.37,50.96,5.73,12.1,10.13,24.75,10.01,39.02-.17,21.12-8.89,38.43-27.52,50.78-11.97,7.93-24.89,10.19-38.06,9.46-16.73-.93-31.96-6.06-46.64-12.56-35.81-15.86-67.96-37.31-98.88-60.55-15.19-11.42-30.77-22.14-48.25-30.06-9.83-4.45-20.02-8.1-31.25-8.84-2.91-.19-5.93.24-9.4.41.65,1.99,1.01,3.21,1.44,4.39,2.95,8.32,6.11,16.55,8.84,24.97,12.94,39.9,8.09,79.65-15.63,118.94-5.33,8.84-11.63,17.15-17.49,25.71-16.16-13.95-32.32-27.91-48.48-41.86Z"/>
</svg>