<?xml version="1.0" encoding="UTF-8"?>
<svg id="Layer_1" xmlns="http://www.w3.org/2000/svg" version="1.1" xmlns:xlink="http://www.w3.org/1999/xlink" viewBox="0 0 841.89 595.28">
  <!-- Generator: Adobe Illustrator 30.0.0, SVG Export Plug-In . SVG Version: 2.1.1 Build 123)  -->
  <defs>
    <style>
      .st0 {
        fill: none;
      }

      .st1 {
        fill: url(#linear-gradient);
        fill-rule: evenodd;
      }
    </style>
    <linearGradient id="linear-gradient" x1="0" y1="296.4" x2="841.89" y2="296.4" gradientUnits="userSpaceOnUse">
      <stop offset="0" stop-color="#05f"/>
      <stop offset=".5" stop-color="#0af"/>
      <stop offset="1" stop-color="#97e5ff"/>
    </linearGradient>
  </defs>
  <rect class="st0" width="841.89" height="595.28"/>
  <path class="st1" d="M841.89,303.53c-6.33.88-12.71,1.54-18.98,2.68-21.51,3.89-37.33,14.67-47.62,31.77-5.83,9.68-11.17,19.6-17,29.28-5.21,8.64-11.58,16.53-20.31,22.75-15.54,11.07-33.25,13.35-52.26,10.09-27.8-4.78-46.85-19.98-60.9-40.86-14.04-20.88-21.4-43.9-25.3-67.67-2.92-17.79-4.15-35.81-5.87-53.75-2.65-27.56-5.92-55.04-13.04-82.03-.83-3.15-1.75-6.27-2.63-9.41-.37,0-.75,0-1.13,0-1.46,5.58-3.1,11.12-4.36,16.73-4.93,21.85-8.17,43.9-10.02,66.12-1.25,14.97-2.04,29.98-3.58,44.92-3.29,32.08-7.83,64.01-17.66,95.14-5.19,16.43-11.71,32.41-23.85,46-12.83,14.37-29.22,22.52-50.4,21.01-18.38-1.31-32.05-10.07-42.72-22.85-10.01-11.99-16.04-25.67-20.78-39.84-7.78-23.29-12.55-47.12-15.36-71.23-2.33-19.96-3.9-39.99-5.7-60-2.7-29.94-6.18-59.77-14.02-89.07-.64-2.38-1.42-4.74-2.13-7.1-.3-.02-.61-.03-.91-.05-1.31,4.87-2.77,9.7-3.91,14.6-6.18,26.51-9.82,53.32-11.54,80.34-1.34,20.99-2.13,42.01-3.63,62.98-1.39,19.42-2.97,38.84-5.26,58.19-2.62,22.11-5.63,44.21-9.4,66.19-3.95,23.03-9.16,45.89-19.66,67.46-4.62,9.5-10.59,18.26-19.45,25.19-23.53,18.4-55.61,13.92-71.65-9.99-7.62-11.36-11.74-23.89-15.16-36.6-7.18-26.62-11.57-53.67-15.59-80.77-3.33-22.47-6.71-44.93-9.93-67.4-4.61-32.11-24.24-55.91-52.79-74.6-25.81-16.88-55.39-26.03-86.5-31.55-12.23-2.17-24.68-3.37-37.04-4.97-1.25-.16-2.55,0-3.83,0v-64.67c4.53.42,9.06.85,13.59,1.25,30.8,2.73,60.94,8.18,90.11,17.49,36.93,11.78,70.02,29.03,97.05,54.6,25.08,23.73,42.75,51.21,49.16,83.39,4.56,22.91,6.99,46.16,10.39,69.26.91,6.21,1.91,12.4,2.87,18.6,1.04-.78,1.33-1.59,1.43-2.43,1.46-11.62,3.12-23.22,4.28-34.86,2-20,3.89-40,5.42-60.03,1.21-15.91,1.78-31.85,2.74-47.77.06-1.04,1.1-2.03,1.49-2.72-.39-.77-1.21-1.7-1.29-2.68-.17-1.95-.08-3.94.14-5.9,2.21-19.04,4.19-38.1,6.8-57.09,2.91-21.19,7.6-42.1,14.93-62.47,5.18-14.38,11.72-28.22,23.01-39.84,11.18-11.52,25.01-18.53,42.52-18.88,17.1-.34,31.08,5.83,42.6,16.64,11.73,11.02,18.66,24.49,24,38.63,12.27,32.5,17.34,66.24,21.06,100.16,1.81,16.48,2.76,33.04,4.13,49.56,2.07,24.91,5.69,49.64,11.58,74.07.89,3.68,2.06,7.3,3.09,10.95.33-.01.65-.02.98-.04.34-1.04.71-2.07,1.02-3.12,6.38-21.71,9.99-43.85,12.38-66.12,2.27-21.12,3.46-42.34,5.75-63.46,1.84-16.98,4.18-33.94,7.08-50.8,3.43-19.97,8.4-39.67,16.75-58.56,5.42-12.24,12.11-23.84,22.98-33.08,16.09-13.67,34.9-18.39,56.42-12.36,13.83,3.87,23.98,12.17,32.04,22.62,10.23,13.27,16.3,28.15,20.98,43.51,11.4,37.47,16.18,75.82,18.8,114.41,1.28,18.96,3.36,37.76,8.78,56.17,3.05,10.35,6.95,20.45,13.73,29.43,1.76,2.33,4.06,4.33,6.46,6.85,1.08-1.79,1.76-2.86,2.39-3.96,4.37-7.67,8.54-15.44,13.12-23.01,21.75-35.87,55-58.18,100.24-65.91,10.18-1.74,20.58-2.41,30.89-3.57v64.05Z"/>
</svg>