<?xml version="1.0" encoding="UTF-8"?>
<svg id="Layer_1" xmlns="http://www.w3.org/2000/svg" version="1.1" xmlns:xlink="http://www.w3.org/1999/xlink" viewBox="0 0 841.89 839.29">
  <!-- Generator: Adobe Illustrator 30.0.0, SVG Export Plug-In . SVG Version: 2.1.1 Build 123)  -->
  <defs>
    <style>
      .st0 {
        fill: none;
      }

      .st1 {
        fill: url(#linear-gradient);
        fill-rule: evenodd;
      }
    </style>
    <linearGradient id="linear-gradient" x1="66.91" y1="1045.56" x2="908.8" y2="1045.56" gradientTransform="translate(649.34 1521.73) rotate(-38.34) scale(1 -1)" gradientUnits="userSpaceOnUse">
      <stop offset="0" stop-color="#05f"/>
      <stop offset=".5" stop-color="#0af"/>
      <stop offset="1" stop-color="#97e5ff"/>
    </linearGradient>
  </defs>
  <rect class="st0" y="244.01" width="841.89" height="595.28"/>
  <path class="st1" d="M709.09,132.31c-5.51,3.24-10.92,6.68-16.55,9.68-19.29,10.29-38.38,11.65-57.06,4.63-10.58-3.98-20.92-8.44-31.49-12.42-9.44-3.55-19.34-5.78-30.05-5.24-19.06.96-34.37,10.16-47.24,24.5-18.84,21-24.35,44.73-22.42,69.82,1.94,25.09,10.45,47.7,22.14,68.77,8.74,15.77,18.96,30.66,28.74,45.8,15.02,23.26,29.5,46.84,40.66,72.43,1.3,2.98,2.52,6.01,3.77,9.01-.29.23-.59.47-.88.7-4.61-3.46-9.33-6.8-13.8-10.42-17.42-14.07-33.65-29.36-48.88-45.64-10.27-10.97-20.2-22.24-30.67-33.01-22.48-23.12-45.85-45.35-72.87-63.66-14.26-9.66-29.29-18.15-47.24-21.28-18.98-3.31-36.89.47-52.56,14.78-13.61,12.43-18.89,27.78-19.33,44.43-.41,15.62,3.34,30.09,8.42,44.14,8.34,23.09,19.39,44.74,32.14,65.4,10.56,17.1,21.75,33.78,32.75,50.59,16.45,25.16,32.23,50.72,44.26,78.56.98,2.27,1.83,4.6,2.73,6.9-.23.2-.46.4-.69.6-4.05-3-8.19-5.89-12.13-9.02-21.29-16.96-40.78-35.73-58.89-55.85-14.07-15.63-27.73-31.62-41.92-47.15-13.14-14.37-26.42-28.62-40.22-42.37-15.78-15.71-31.84-31.18-48.43-46.08-17.39-15.62-35.65-30.31-57.27-40.72-9.52-4.58-19.63-7.75-30.88-7.69-29.87.16-52.25,23.58-50,52.28,1.07,13.63,5.61,26.02,10.81,38.11,10.88,25.33,24.22,49.27,37.88,73.02,11.32,19.69,22.61,39.4,34.03,59.03,16.31,28.04,15.68,58.89,4.87,91.26-9.77,29.25-27.3,54.78-48.27,78.41-8.25,9.29-17.26,17.96-25.96,26.87-.88.9-2,1.59-3.01,2.37,13.37,16.91,26.75,33.82,40.12,50.72,3.29-3.14,6.58-6.29,9.89-9.41,22.47-21.25,42.72-44.22,59.82-69.62,21.65-32.15,36.91-66.21,42.25-103.03,4.95-34.17,1.76-66.68-13.18-95.9-10.63-20.8-23.16-40.54-34.82-60.76-3.13-5.43-6.19-10.91-9.29-16.37,1.3-.04,2.03.43,2.63,1.02,8.35,8.21,16.85,16.28,24.98,24.69,13.97,14.45,27.87,28.96,41.49,43.72,10.82,11.72,21.15,23.88,31.79,35.77.69.78,2.12.91,2.86,1.21.17.85.11,2.08.65,2.9,1.08,1.64,2.38,3.15,3.77,4.54,13.54,13.56,26.92,27.28,40.75,40.56,15.42,14.81,32.07,28.31,50.46,39.73,12.98,8.07,26.7,14.86,42.76,16.97,15.92,2.09,31.11-.98,45.06-11.57,13.62-10.34,20.77-23.85,23.09-39.48,2.37-15.92-.56-30.79-5.14-45.19-10.54-33.11-27.49-62.71-45.61-91.62-8.81-14.05-18.33-27.62-27.51-41.43-13.83-20.82-26.33-42.46-36.87-65.28-1.59-3.44-2.92-7-4.37-10.51.26-.19.53-.39.79-.58.91.6,1.84,1.19,2.73,1.82,18.47,13.07,35.03,28.19,50.73,44.18,14.89,15.16,28.98,31.06,43.88,46.21,11.98,12.18,24.33,24.03,37.07,35.45,15.08,13.53,31.2,25.9,49.47,35.54,11.84,6.24,24.29,11.19,38.55,11.69,21.11.74,38.78-7.23,51.92-25.31,8.44-11.62,11.26-24.43,11.1-37.61-.21-16.75-4.68-32.19-10.54-47.14-14.3-36.46-34.34-69.51-56.23-101.4-10.75-15.66-20.79-31.7-27.96-49.5-4.03-10.01-7.23-20.35-7.49-31.6-.06-2.92.5-5.92.82-9.38,1.96.74,3.16,1.15,4.33,1.63,8.19,3.31,16.27,6.81,24.56,9.91,39.31,14.65,79.23,11.51,119.51-10.49,9.06-4.95,17.64-10.88,26.44-16.36-13.24-16.75-26.49-33.49-39.73-50.24Z"/>
</svg>