<?xml version="1.0" encoding="UTF-8"?>
<svg id="Layer_1" xmlns="http://www.w3.org/2000/svg" version="1.1" viewBox="0 0 307.78 218.37">
  <!-- Generator: Adobe Illustrator 30.0.0, SVG Export Plug-In . SVG Version: 2.1.1 Build 123)  -->
  <defs>
    <style>
      .st0 {
        fill: #97e5ff;
      }

      .st1 {
        fill: none;
      }

      .st2 {
        fill: #0af;
      }

      .st3 {
        fill: #05f;
      }
    </style>
  </defs>
  <g>
    <path class="st3" d="M94.95,112.19c-.03-.91-.04-1.82-.04-2.74,0-41.6,24.6-77.42,59.97-93.6-12.89-5.89-27.22-9.18-42.3-9.18C56.1,6.68,10.31,52.69,10.31,109.45c0,.92.01,1.83.04,2.74h-.04v100.04h84.61v-100.04h.04Z"/>
    <path class="st0" d="M197.19,6.68c-15.09,0-29.41,3.29-42.31,9.18,35.38,16.17,59.98,52,59.98,93.6,0,56.6-45.52,102.5-101.78,102.77h0s84.61,0,84.61,0h0c56.26-.28,101.78-46.18,101.78-102.78S253.68,6.68,197.19,6.68Z"/>
    <path class="st2" d="M214.86,109.45c0-41.6-24.6-77.42-59.98-93.6-35.38,16.17-59.97,52-59.97,93.6,0,.92.01,1.83.04,2.74h-.04v100.04h18.17c56.26-.28,101.78-46.18,101.78-102.78Z"/>
  </g>
  <rect class="st1" x="-139.32" y="-425.34" width="841.89" height="595.28"/>
</svg>